<svg width="23" height="22" viewBox="0 0 23 22" fill="none" xmlns="http://www.w3.org/2000/svg">
<path d="M17.3898 19.85H5.60979C5.29211 19.8503 4.98351 19.7441 4.73333 19.5483C4.48316 19.3525 4.30586 19.0785 4.22979 18.77L1.57979 8.16004C1.55394 8.05675 1.55198 7.94892 1.57408 7.84476C1.59618 7.7406 1.64175 7.64286 1.70732 7.55897C1.77289 7.47507 1.85673 7.40724 1.95247 7.36064C2.04821 7.31404 2.15332 7.28989 2.25979 7.29004H20.7398C20.8463 7.28989 20.9514 7.31404 21.0471 7.36064C21.1429 7.40724 21.2267 7.47507 21.2923 7.55897C21.3578 7.64286 21.4034 7.7406 21.4255 7.84476C21.4476 7.94892 21.4457 8.05675 21.4198 8.16004L18.7698 18.77C18.6937 19.0785 18.5164 19.3525 18.2663 19.5483C18.0161 19.7441 17.7075 19.8503 17.3898 19.85V19.85Z" stroke="#151515" stroke-width="2.5" stroke-linecap="round" stroke-linejoin="round"/>
<path d="M9.29966 2.15039L6.39966 7.29039" stroke="#151515" stroke-width="2.5" stroke-linecap="round" stroke-linejoin="round"/>
<path d="M13.3799 2.15039L16.2899 7.29039" stroke="#151515" stroke-width="2.5" stroke-linecap="round" stroke-linejoin="round"/>
</svg>
