<svg width="498" height="134" viewBox="0 0 498 134" fill="none" xmlns="http://www.w3.org/2000/svg">
<path d="M478.701 229.28H410.958V164.174H478.701C488.88 164.174 497.131 155.931 497.131 145.75C497.131 135.568 488.88 127.32 478.701 127.32H410.958V36.982C410.958 23.795 408.352 14.116 403.215 8.21998C398.333 2.61098 391.914 0.000976562 383.025 0.000976562C374.543 0.000976562 368.366 2.59298 363.578 8.16698C358.501 14.069 355.924 23.766 355.924 36.988V127.331H228.496L174.315 45.343C169.678 38.026 165.318 31.172 161.084 24.593C157.272 18.668 153.554 13.844 150.042 10.242C146.933 7.05298 143.39 4.58498 139.246 2.68798C135.336 0.902977 130.365 0.00697708 124.484 0.00697708C116.983 0.00697708 110.174 2.06198 103.654 6.28398C97.2021 10.46 92.7421 15.623 90.0181 22.069C87.6271 28.195 86.3621 37.582 86.3621 49.699V127.325H19.2921C9.11514 127.326 0.869141 135.574 0.869141 145.755C0.869141 155.936 9.11514 164.179 19.2931 164.179H86.3631V229.292H19.2931C9.11514 229.292 0.869141 237.538 0.869141 247.722C0.869141 257.9 9.11514 266.14 19.2931 266.14H86.3631V369.283C86.3631 382.08 89.0521 391.661 94.3781 397.749C99.4431 403.554 105.865 406.249 114.586 406.249C123 406.249 129.372 403.542 134.656 397.726C140.067 391.768 142.804 382.193 142.804 369.284V266.14H258.112L320.511 361.823C324.85 368.148 329.33 374.532 333.798 380.792C337.829 386.413 342.227 391.366 346.867 395.503C351.046 399.245 355.526 401.987 360.183 403.66C364.977 405.386 370.58 406.261 376.798 406.261C393.673 406.261 410.956 401.095 410.956 362.782V266.14H478.699C488.878 266.14 497.129 257.888 497.129 247.71C497.131 237.532 488.88 229.28 478.701 229.28ZM355.923 164.173V229.279H295.882L252.861 164.173H355.923ZM142.805 89.364L167.565 127.32H142.805V89.364ZM142.805 229.28V164.174H191.607L234.073 229.28H142.805ZM355.923 320.153L320.24 266.14H355.923V320.153Z" fill="black"/>
</svg>
