<svg width="17" height="15" viewBox="0 0 17 15" fill="none" xmlns="http://www.w3.org/2000/svg">
<path d="M16.3687 8.39522H14.048V6.16494H16.3687C16.7174 6.16494 17 5.88257 17 5.53381C17 5.18501 16.7174 4.90247 16.3687 4.90247H14.048V1.80784C14.048 1.35611 13.9588 1.02454 13.7828 0.822567C13.6156 0.630424 13.3957 0.541016 13.0912 0.541016C12.8006 0.541016 12.589 0.629807 12.425 0.820751C12.2511 1.02293 12.1628 1.35511 12.1628 1.80805V4.90284H7.79761L5.94158 2.09426C5.78274 1.8436 5.63338 1.60881 5.48834 1.38344C5.35776 1.18047 5.23039 1.01522 5.11009 0.891832C5.00358 0.78259 4.88221 0.698046 4.74026 0.633062C4.60632 0.571915 4.43603 0.541221 4.23457 0.541221C3.97761 0.541221 3.74436 0.611617 3.52101 0.756247C3.29999 0.8993 3.14721 1.07616 3.0539 1.29698C2.97199 1.50683 2.92866 1.82839 2.92866 2.24348V4.90264H0.6311C0.282476 4.90267 0 5.18522 0 5.53398C0 5.88274 0.282476 6.16511 0.631134 6.16511H2.92869V8.39563H0.631134C0.282476 8.39563 0 8.67811 0 9.02697C0 9.37563 0.282476 9.6579 0.631134 9.6579H2.92869V13.1912C2.92869 13.6296 3.02081 13.9578 3.20325 14.1663C3.37676 14.3652 3.59675 14.4575 3.8955 14.4575C4.18373 14.4575 4.40201 14.3648 4.58302 14.1655C4.76838 13.9614 4.86214 13.6334 4.86214 13.1912V9.6579H8.81214L10.9497 12.9356C11.0983 13.1523 11.2518 13.371 11.4048 13.5854C11.5429 13.778 11.6936 13.9477 11.8525 14.0894C11.9957 14.2176 12.1492 14.3115 12.3087 14.3688C12.4729 14.4279 12.6649 14.4579 12.8779 14.4579C13.4559 14.4579 14.048 14.2809 14.048 12.9685V9.6579H16.3686C16.7173 9.6579 16.9999 9.37522 16.9999 9.02656C17 8.6779 16.7174 8.39522 16.3687 8.39522ZM12.1628 6.16491V8.39519H10.106L8.63226 6.16491H12.1628ZM4.86217 3.60224L5.71035 4.90247H4.86217V3.60224ZM4.86217 8.39522V6.16494H6.53394L7.98866 8.39522H4.86217ZM12.1628 11.5082L10.9404 9.6579H12.1628V11.5082Z" fill="black"/>
</svg>
